<svg width="47" height="43" viewBox="0 0 47 43" fill="none" xmlns="http://www.w3.org/2000/svg">
<path d="M30.2161 0.660004V7.168" stroke="#5EF6FF" stroke-miterlimit="10"/>
<path d="M33.47 3.914H26.962" stroke="#5EF6FF" stroke-miterlimit="10"/>
<path d="M3.755 12.479V18.987" stroke="#5EF6FF" stroke-miterlimit="10"/>
<path d="M7.009 15.733H0.5" stroke="#5EF6FF" stroke-miterlimit="10"/>
<path d="M16.985 12.479V18.987" stroke="#5EF6FF" stroke-miterlimit="10"/>
<path d="M20.24 15.733H13.731" stroke="#5EF6FF" stroke-miterlimit="10"/>
<path d="M43.446 12.479V18.987" stroke="#5EF6FF" stroke-miterlimit="10"/>
<path d="M46.701 15.733H40.192" stroke="#5EF6FF" stroke-miterlimit="10"/>
<path d="M16.985 24.297V30.806" stroke="#5EF6FF" stroke-miterlimit="10"/>
<path d="M20.24 27.552H13.731" stroke="#5EF6FF" stroke-miterlimit="10"/>
<path d="M30.2161 24.297V30.806" stroke="#5EF6FF" stroke-miterlimit="10"/>
<path d="M33.47 27.552H26.962" stroke="#5EF6FF" stroke-miterlimit="10"/>
<path d="M43.446 24.297V30.806" stroke="#5EF6FF" stroke-miterlimit="10"/>
<path d="M46.701 27.552H40.192" stroke="#5EF6FF" stroke-miterlimit="10"/>
<path d="M3.755 36.116V42.625" stroke="#5EF6FF" stroke-miterlimit="10"/>
<path d="M7.009 39.371H0.5" stroke="#5EF6FF" stroke-miterlimit="10"/>
<path d="M16.985 36.116V42.625" stroke="#5EF6FF" stroke-miterlimit="10"/>
<path d="M20.24 39.371H13.731" stroke="#5EF6FF" stroke-miterlimit="10"/>
<path d="M30.2161 36.116V42.625" stroke="#5EF6FF" stroke-miterlimit="10"/>
<path d="M33.47 39.371H26.962" stroke="#5EF6FF" stroke-miterlimit="10"/>
</svg>
