<svg width="45" height="45" viewBox="0 0 45 45" fill="none" xmlns="http://www.w3.org/2000/svg">
<g filter="url(#filter0_i_500_11)">
<path d="M20.4188 4.75876C20.989 4.37818 21.6527 4.16121 22.3377 4.13146C23.0226 4.10171 23.7026 4.26031 24.3037 4.59001L24.5794 4.75876L39.5794 14.7581C40.0493 15.0713 40.4425 15.4865 40.7295 15.9729C41.0165 16.4592 41.1899 17.0041 41.2369 17.5669L41.25 17.8781V35.625C41.2503 36.5711 40.893 37.4823 40.2497 38.176C39.6064 38.8698 38.7247 39.2947 37.7812 39.3656L37.5 39.375H7.5C6.55392 39.3753 5.64269 39.018 4.94897 38.3747C4.25526 37.7314 3.83033 36.8497 3.75938 35.9063L3.75 35.625V17.8781C3.75001 17.3136 3.87749 16.7563 4.12293 16.2479C4.36837 15.7395 4.72544 15.293 5.1675 14.9419L5.42063 14.7581L20.4188 4.75876ZM22.5 7.87876L9.00562 16.875L22.5 25.8713L35.9944 16.875L22.5 7.87876Z" fill="#FFF200"/>
</g>
<defs>
<filter id="filter0_i_500_11" x="0" y="0" width="45" height="45" filterUnits="userSpaceOnUse" color-interpolation-filters="sRGB">
<feFlood flood-opacity="0" result="BackgroundImageFix"/>
<feBlend mode="normal" in="SourceGraphic" in2="BackgroundImageFix" result="shape"/>
<feColorMatrix in="SourceAlpha" type="matrix" values="0 0 0 0 0 0 0 0 0 0 0 0 0 0 0 0 0 0 127 0" result="hardAlpha"/>
<feOffset/>
<feGaussianBlur stdDeviation="10"/>
<feComposite in2="hardAlpha" operator="arithmetic" k2="-1" k3="1"/>
<feColorMatrix type="matrix" values="0 0 0 0 1 0 0 0 0 0.533333 0 0 0 0 0 0 0 0 1 0"/>
<feBlend mode="normal" in2="shape" result="effect1_innerShadow_500_11"/>
</filter>
</defs>
</svg>
