<svg width="951" height="716" viewBox="0 0 951 716" fill="none" xmlns="http://www.w3.org/2000/svg">
<path d="M520.72 289.352L520.819 164.357" stroke="#F75049" stroke-width="2.7778" stroke-miterlimit="10" stroke-linecap="round" stroke-linejoin="round"/>
<path d="M527.16 156.119C527.16 159.622 524.321 162.461 520.818 162.461C517.315 162.461 514.477 159.622 514.477 156.119C514.477 152.616 517.315 149.777 520.818 149.777C524.321 149.777 527.16 152.616 527.16 156.119Z" stroke="#F75049" stroke-width="2.7778" stroke-miterlimit="10" stroke-linecap="round" stroke-linejoin="round"/>
<path d="M542.94 257.295V79.7323L532.793 71.6153V20.8838" stroke="#F75049" stroke-width="2.7778" stroke-miterlimit="10" stroke-linecap="round" stroke-linejoin="round"/>
<path d="M453.44 103.114C453.44 106.617 456.279 109.455 459.782 109.455C463.283 109.455 466.124 106.617 466.124 103.114C466.124 99.6104 463.285 96.7719 459.782 96.7719C456.281 96.7719 453.44 99.6121 453.44 103.114Z" stroke="#F75049" stroke-width="2.7778" stroke-miterlimit="10" stroke-linecap="round" stroke-linejoin="round"/>
<path d="M475.605 267.296V172.681L459.878 157.714V109.265" stroke="#F75049" stroke-width="2.7778" stroke-miterlimit="10" stroke-linecap="round" stroke-linejoin="round"/>
<path d="M512.743 79.921C518.364 79.921 522.921 75.3642 522.921 69.7432C522.921 64.1221 518.364 59.5654 512.743 59.5654C507.122 59.5654 502.565 64.1221 502.565 69.7432C502.565 75.3642 507.122 79.921 512.743 79.921Z" stroke="#F75049" stroke-width="2.7778" stroke-miterlimit="10" stroke-linecap="round" stroke-linejoin="round"/>
<path d="M497.302 291.917V134.648L512.774 119.175V79.857" stroke="#F75049" stroke-width="2.7778" stroke-miterlimit="10" stroke-linecap="round" stroke-linejoin="round"/>
<path d="M566.246 309.256V138.822L573.856 131.212V89.0684" stroke="#F75049" stroke-width="2.7778" stroke-miterlimit="10" stroke-linecap="round" stroke-linejoin="round"/>
<path d="M580.134 82.0655C580.134 85.5686 577.296 88.4071 573.793 88.4071C570.29 88.4071 567.451 85.5686 567.451 82.0655C567.451 78.5624 570.29 75.7238 573.793 75.7238C577.296 75.7238 580.134 78.5624 580.134 82.0655Z" stroke="#F75049" stroke-width="2.7778" stroke-miterlimit="10" stroke-linecap="round" stroke-linejoin="round"/>
<path d="M694.592 21.2087C694.592 24.7118 691.754 27.5503 688.251 27.5503C684.749 27.5503 681.909 24.7118 681.909 21.2087C681.909 17.7072 684.748 14.8671 688.251 14.8671C691.754 14.8671 694.592 17.7056 694.592 21.2087Z" stroke="#F75049" stroke-width="2.7778" stroke-miterlimit="10" stroke-linecap="round" stroke-linejoin="round"/>
<path d="M457.715 189.496C457.715 192.999 454.876 195.838 451.373 195.838C447.871 195.838 445.031 192.999 445.031 189.496C445.031 185.993 447.87 183.154 451.373 183.154C454.876 183.156 457.715 185.995 457.715 189.496Z" stroke="#F75049" stroke-width="2.7778" stroke-miterlimit="10" stroke-linecap="round" stroke-linejoin="round"/>
<path d="M451.065 283.133L451.501 195.806" stroke="#F75049" stroke-width="2.7778" stroke-miterlimit="10" stroke-linecap="round" stroke-linejoin="round"/>
<path d="M429.055 283.755V182.357L445.605 165.805V57.5554L429.719 41.6693V21.7452" stroke="#F75049" stroke-width="2.7778" stroke-miterlimit="10" stroke-linecap="round" stroke-linejoin="round"/>
<path d="M388.487 98.3356C388.487 101.793 385.685 104.595 382.227 104.595C378.77 104.595 375.968 101.793 375.968 98.3356C375.968 94.8784 378.77 92.076 382.227 92.076C385.683 92.0743 388.487 94.8768 388.487 98.3356Z" stroke="#F75049" stroke-width="2.7778" stroke-miterlimit="10" stroke-linecap="round" stroke-linejoin="round"/>
<path d="M337.365 64.6272C340.822 64.6272 343.625 61.8247 343.625 58.3676C343.625 54.9105 340.822 52.108 337.365 52.108C333.908 52.108 331.105 54.9105 331.105 58.3676C331.105 61.8247 333.908 64.6272 337.365 64.6272Z" stroke="#F75049" stroke-width="2.7778" stroke-miterlimit="10" stroke-linecap="round" stroke-linejoin="round"/>
<path d="M437.314 174.05L428.928 165.664V139.121H392.868L381.851 128.103L381.614 105.558" stroke="#F75049" stroke-width="2.7778" stroke-miterlimit="10" stroke-linecap="round" stroke-linejoin="round"/>
<path d="M281.306 131.102C281.306 136.011 277.325 139.992 272.416 139.992C267.507 139.992 263.526 136.011 263.526 131.102C263.526 126.193 267.507 122.212 272.416 122.212C277.327 122.212 281.306 126.191 281.306 131.102Z" stroke="#F75049" stroke-width="2.7778" stroke-miterlimit="10" stroke-linecap="round" stroke-linejoin="round"/>
<path d="M438.93 10.8898C438.93 15.799 434.949 19.7796 430.04 19.7796C425.131 19.7796 421.15 15.799 421.15 10.8898C421.15 5.98053 425.131 1.99998 430.04 1.99998C434.949 1.99998 438.93 5.98053 438.93 10.8898Z" stroke="#F75049" stroke-width="2.7778" stroke-miterlimit="10" stroke-linecap="round" stroke-linejoin="round"/>
<path d="M541.669 11.0801C541.669 15.9893 537.689 19.9699 532.779 19.9699C527.87 19.9699 523.89 15.9893 523.89 11.0801C523.89 6.17085 527.87 2.1903 532.779 2.1903C537.689 2.1903 541.669 6.17085 541.669 11.0801Z" stroke="#F75049" stroke-width="2.7778" stroke-miterlimit="10" stroke-linecap="round" stroke-linejoin="round"/>
<path d="M630.012 78.208C634.922 78.208 638.902 74.2279 638.902 69.3182C638.902 64.4085 634.922 60.4284 630.012 60.4284C625.102 60.4284 621.122 64.4085 621.122 69.3182C621.122 74.2279 625.102 78.208 630.012 78.208Z" stroke="#F75049" stroke-width="2.7778" stroke-miterlimit="10" stroke-linecap="round" stroke-linejoin="round"/>
<path d="M407.114 282.511V195.59L366.549 155.023H293.429L277.403 138.998" stroke="#F75049" stroke-width="2.7778" stroke-miterlimit="10" stroke-linecap="round" stroke-linejoin="round"/>
<path d="M593.439 135.865C596.896 135.865 599.699 133.063 599.699 129.606C599.699 126.149 596.896 123.346 593.439 123.346C589.982 123.346 587.18 126.149 587.18 129.606C587.18 133.063 589.982 135.865 593.439 135.865Z" stroke="#F75049" stroke-width="2.7778" stroke-miterlimit="10" stroke-linecap="round" stroke-linejoin="round"/>
<path d="M636.413 207.571C636.413 211.028 639.216 213.831 642.673 213.831C646.13 213.831 648.932 211.028 648.932 207.571C648.932 204.114 646.13 201.311 642.673 201.311C639.216 201.31 636.413 204.112 636.413 207.571Z" stroke="#F75049" stroke-width="2.7778" stroke-miterlimit="10" stroke-linecap="round" stroke-linejoin="round"/>
<path d="M566.204 170.392H582.797L593.815 159.373L594.053 136.828" stroke="#F75049" stroke-width="2.7778" stroke-miterlimit="10" stroke-linecap="round" stroke-linejoin="round"/>
<path d="M717.343 129.076C717.343 133.985 721.323 137.965 726.233 137.965C731.142 137.965 735.122 133.985 735.122 129.076C735.122 124.166 731.142 120.186 726.233 120.186C721.323 120.186 717.343 124.166 717.343 129.076Z" stroke="#F75049" stroke-width="2.7778" stroke-miterlimit="10" stroke-linecap="round" stroke-linejoin="round"/>
<path d="M590.581 245.66V194.576L631.148 154.011H704.266L720.294 137.984" stroke="#F75049" stroke-width="2.7778" stroke-miterlimit="10" stroke-linecap="round" stroke-linejoin="round"/>
<path d="M337.303 154.903V66.2794" stroke="#F75049" stroke-width="2.7778" stroke-miterlimit="10" stroke-linecap="round" stroke-linejoin="round"/>
<path d="M630.519 152.37V77.9274" stroke="#F75049" stroke-width="2.7778" stroke-miterlimit="10" stroke-linecap="round" stroke-linejoin="round"/>
<path d="M630.012 125.025H665.715L688.123 102.615V27.0318" stroke="#F75049" stroke-width="2.7778" stroke-miterlimit="10" stroke-linecap="round" stroke-linejoin="round"/>
<path d="M825.778 179.735C822.275 179.735 819.437 182.574 819.437 186.077C819.437 189.58 822.275 192.418 825.778 192.418C829.281 192.418 832.12 189.58 832.12 186.077C832.12 182.575 829.28 179.735 825.778 179.735Z" stroke="#F75049" stroke-width="2.7778" stroke-miterlimit="10" stroke-linecap="round" stroke-linejoin="round"/>
<path d="M788.619 530.701C785.162 530.701 782.359 533.504 782.359 536.961C782.359 540.418 785.162 543.22 788.619 543.22C792.076 543.22 794.879 540.418 794.879 536.961C794.879 533.504 792.076 530.701 788.619 530.701Z" stroke="#F75049" stroke-width="2.7778" stroke-miterlimit="10" stroke-linecap="round" stroke-linejoin="round"/>
<path d="M715.599 568.872C710.69 568.872 706.709 572.853 706.709 577.762C706.709 582.671 710.69 586.652 715.599 586.652C720.508 586.652 724.489 582.671 724.489 577.762C724.489 572.851 720.508 568.872 715.599 568.872Z" stroke="#F75049" stroke-width="2.7778" stroke-miterlimit="10" stroke-linecap="round" stroke-linejoin="round"/>
<path d="M777.668 235.425C772.759 235.425 768.778 239.406 768.778 244.315C768.778 249.224 772.759 253.205 777.668 253.205C782.577 253.205 786.558 249.224 786.558 244.315C786.558 239.406 782.577 235.425 777.668 235.425Z" stroke="#F75049" stroke-width="2.7778" stroke-miterlimit="10" stroke-linecap="round" stroke-linejoin="round"/>
<path d="M544.5 467.212H651.396L691.963 507.779V559.531L707.989 572.192" stroke="#F75049" stroke-width="2.7778" stroke-miterlimit="10" stroke-linecap="round" stroke-linejoin="round"/>
<path d="M693.823 212.915C688.914 212.915 684.934 208.934 684.934 204.025C684.934 199.116 688.914 195.135 693.823 195.135C698.733 195.135 702.713 199.116 702.713 204.025C702.713 208.934 698.733 212.915 693.823 212.915Z" stroke="#F75049" stroke-width="2.7778" stroke-miterlimit="10" stroke-linecap="round" stroke-linejoin="round"/>
<path d="M601.326 283.746H652.409L692.976 243.181V213.647" stroke="#F75049" stroke-width="2.7778" stroke-miterlimit="10" stroke-linecap="round" stroke-linejoin="round"/>
<path d="M692.083 537.025H780.707" stroke="#F75049" stroke-width="2.7778" stroke-miterlimit="10" stroke-linecap="round" stroke-linejoin="round"/>
<path d="M694.614 243.809H769.058" stroke="#F75049" stroke-width="2.7778" stroke-miterlimit="10" stroke-linecap="round" stroke-linejoin="round"/>
<path d="M721.962 244.315V208.613L744.37 186.203H819.953" stroke="#F75049" stroke-width="2.7778" stroke-miterlimit="10" stroke-linecap="round" stroke-linejoin="round"/>
<path d="M470.969 354.059L313.336 353.509" stroke="#F75049" stroke-width="2.7778" stroke-miterlimit="10" stroke-linecap="round" stroke-linejoin="round"/>
<path d="M305.097 347.168C308.6 347.168 311.438 350.006 311.438 353.509C311.438 357.012 308.6 359.851 305.097 359.851C301.593 359.851 298.755 357.012 298.755 353.509C298.755 350.008 301.595 347.168 305.097 347.168Z" stroke="#F75049" stroke-width="2.7778" stroke-miterlimit="10" stroke-linecap="round" stroke-linejoin="round"/>
<path d="M501.446 331.39H228.712L220.595 341.536H86.5537" stroke="#F75049" stroke-width="2.7778" stroke-miterlimit="10" stroke-linecap="round" stroke-linejoin="round"/>
<path d="M252.091 420.886C255.594 420.886 258.432 418.048 258.432 414.545C258.432 411.042 255.594 408.203 252.091 408.203C248.589 408.203 245.749 411.042 245.749 414.545C245.751 418.048 248.589 420.886 252.091 420.886Z" stroke="#F75049" stroke-width="2.7778" stroke-miterlimit="10" stroke-linecap="round" stroke-linejoin="round"/>
<path d="M8.34164 379.109C11.8447 379.109 14.6833 376.27 14.6833 372.767C14.6833 369.264 11.8447 366.425 8.34164 366.425C4.8402 366.425 2 369.264 2 372.767C2 376.27 4.8402 379.109 8.34164 379.109Z" stroke="#F75049" stroke-width="2.7778" stroke-miterlimit="10" stroke-linecap="round" stroke-linejoin="round"/>
<path d="M429 398.723H321.658L306.692 414.45H258.241" stroke="#F75049" stroke-width="2.7778" stroke-miterlimit="10" stroke-linecap="round" stroke-linejoin="round"/>
<path d="M228.115 365.463C230.249 360.263 227.763 354.318 222.563 352.184C217.363 350.05 211.418 352.536 209.284 357.736C207.151 362.936 209.636 368.881 214.836 371.015C220.036 373.149 225.982 370.663 228.115 365.463Z" stroke="#F75049" stroke-width="2.7778" stroke-miterlimit="10" stroke-linecap="round" stroke-linejoin="round"/>
<path d="M440.896 377.025H283.627L268.152 361.551H228.836" stroke="#F75049" stroke-width="2.7778" stroke-miterlimit="10" stroke-linecap="round" stroke-linejoin="round"/>
<path d="M497.714 308.082H287.798L280.188 300.472H238.044" stroke="#F75049" stroke-width="2.7778" stroke-miterlimit="10" stroke-linecap="round" stroke-linejoin="round"/>
<path d="M231.041 294.193C234.542 294.193 237.382 297.032 237.382 300.535C237.382 304.036 234.544 306.876 231.041 306.876C227.538 306.876 224.699 304.038 224.699 300.535C224.699 297.033 227.539 294.193 231.041 294.193Z" stroke="#F75049" stroke-width="2.7778" stroke-miterlimit="10" stroke-linecap="round" stroke-linejoin="round"/>
<path d="M170.184 179.735C173.688 179.735 176.526 182.574 176.526 186.077C176.526 189.58 173.688 192.418 170.184 192.418C166.683 192.418 163.843 189.58 163.843 186.077C163.843 182.575 166.683 179.735 170.184 179.735Z" stroke="#F75049" stroke-width="2.7778" stroke-miterlimit="10" stroke-linecap="round" stroke-linejoin="round"/>
<path d="M338.475 416.612C341.979 416.612 344.817 419.451 344.817 422.954C344.817 426.455 341.979 429.296 338.475 429.296C334.974 429.296 332.134 426.457 332.134 422.954C332.134 419.452 334.972 416.612 338.475 416.612Z" stroke="#F75049" stroke-width="2.7778" stroke-miterlimit="10" stroke-linecap="round" stroke-linejoin="round"/>
<path d="M390.445 422.828H344.785" stroke="#F75049" stroke-width="2.7778" stroke-miterlimit="10" stroke-linecap="round" stroke-linejoin="round"/>
<path d="M393.355 445.273H331.334L314.784 428.723H206.533L190.648 444.607H117.729" stroke="#F75049" stroke-width="2.7778" stroke-miterlimit="10" stroke-linecap="round" stroke-linejoin="round"/>
<path d="M247.314 485.84C250.771 485.84 253.574 488.643 253.574 492.1C253.574 495.557 250.771 498.359 247.314 498.359C243.857 498.359 241.055 495.557 241.055 492.1C241.055 488.643 243.857 485.84 247.314 485.84Z" stroke="#F75049" stroke-width="2.7778" stroke-miterlimit="10" stroke-linecap="round" stroke-linejoin="round"/>
<path d="M213.161 539.352C214.478 536.155 212.954 532.497 209.757 531.18C206.56 529.864 202.901 531.388 201.585 534.585C200.268 537.782 201.793 541.44 204.989 542.757C208.186 544.073 211.845 542.549 213.161 539.352Z" stroke="#F75049" stroke-width="2.7778" stroke-miterlimit="10" stroke-linecap="round" stroke-linejoin="round"/>
<path d="M323.029 437.012L314.641 445.4H288.098V481.458L277.081 492.476L254.536 492.714" stroke="#F75049" stroke-width="2.7778" stroke-miterlimit="10" stroke-linecap="round" stroke-linejoin="round"/>
<path d="M280.08 593.02C284.989 593.02 288.97 597 288.97 601.91C288.97 606.819 284.989 610.799 280.08 610.799C275.171 610.799 271.19 606.819 271.19 601.91C271.19 597 275.171 593.02 280.08 593.02Z" stroke="#F75049" stroke-width="2.7778" stroke-miterlimit="10" stroke-linecap="round" stroke-linejoin="round"/>
<path d="M108.431 435.398C113.34 435.398 117.321 439.378 117.321 444.287C117.321 449.197 113.34 453.177 108.431 453.177C103.522 453.177 99.541 449.197 99.541 444.287C99.541 439.376 103.522 435.398 108.431 435.398Z" stroke="#F75049" stroke-width="2.7778" stroke-miterlimit="10" stroke-linecap="round" stroke-linejoin="round"/>
<path d="M129.761 564.6C134.67 564.6 138.651 568.58 138.651 573.49C138.651 578.399 134.67 582.379 129.761 582.379C124.852 582.379 120.871 578.399 120.871 573.49C120.871 568.58 124.852 564.6 129.761 564.6Z" stroke="#F75049" stroke-width="2.7778" stroke-miterlimit="10" stroke-linecap="round" stroke-linejoin="round"/>
<path d="M76.7091 332.658C81.6184 332.658 85.5989 336.639 85.5989 341.548C85.5989 346.457 81.6184 350.438 76.7091 350.438C71.7999 350.438 67.8193 346.457 67.8193 341.548C67.8193 336.639 71.7999 332.658 76.7091 332.658Z" stroke="#F75049" stroke-width="2.7778" stroke-miterlimit="10" stroke-linecap="round" stroke-linejoin="round"/>
<path d="M163.535 235.425C168.445 235.425 172.425 239.405 172.425 244.315C172.425 249.224 168.445 253.204 163.535 253.204C158.626 253.204 154.646 249.224 154.646 244.315C154.646 239.405 158.624 235.425 163.535 235.425Z" stroke="#F75049" stroke-width="2.7778" stroke-miterlimit="10" stroke-linecap="round" stroke-linejoin="round"/>
<path d="M89.2892 147.293C94.1984 147.293 98.179 151.274 98.179 156.183C98.179 161.092 94.1984 165.073 89.2892 165.073C84.38 165.073 80.3994 161.092 80.3994 156.183C80.3994 151.274 84.3783 147.293 89.2892 147.293Z" stroke="#F75049" stroke-width="2.7778" stroke-miterlimit="10" stroke-linecap="round" stroke-linejoin="round"/>
<path d="M336.291 188.553C341.2 188.553 345.181 192.533 345.181 197.442C345.181 202.352 341.2 206.332 336.291 206.332C331.382 206.332 327.401 202.352 327.401 197.442C327.401 192.533 331.382 188.553 336.291 188.553Z" stroke="#F75049" stroke-width="2.7778" stroke-miterlimit="10" stroke-linecap="round" stroke-linejoin="round"/>
<path d="M429.92 467.212H344.568L304.001 507.779V580.899L287.976 596.925" stroke="#F75049" stroke-width="2.7778" stroke-miterlimit="10" stroke-linecap="round" stroke-linejoin="round"/>
<path d="M278.585 287.149C282.042 287.149 284.844 284.347 284.844 280.89C284.844 277.432 282.042 274.63 278.585 274.63C275.128 274.63 272.325 277.432 272.325 280.89C272.324 284.347 275.126 287.149 278.585 287.149Z" stroke="#F75049" stroke-width="2.7778" stroke-miterlimit="10" stroke-linecap="round" stroke-linejoin="round"/>
<path d="M319.369 308.123V291.532L308.351 280.514L285.807 280.276" stroke="#F75049" stroke-width="2.7778" stroke-miterlimit="10" stroke-linecap="round" stroke-linejoin="round"/>
<path d="M499.58 283.746H369.096H343.555L302.988 243.181V197.769L326.163 197.442" stroke="#F75049" stroke-width="2.7778" stroke-miterlimit="10" stroke-linecap="round" stroke-linejoin="round"/>
<path d="M303.88 537.025H215.256" stroke="#F75049" stroke-width="2.7778" stroke-miterlimit="10" stroke-linecap="round" stroke-linejoin="round"/>
<path d="M301.349 243.809H172.969" stroke="#F75049" stroke-width="2.7778" stroke-miterlimit="10" stroke-linecap="round" stroke-linejoin="round"/>
<path d="M274.001 244.315V208.613L251.593 186.203H176.01" stroke="#F75049" stroke-width="2.7778" stroke-miterlimit="10" stroke-linecap="round" stroke-linejoin="round"/>
<path d="M574.217 354.038L703.128 353.509" stroke="#F75049" stroke-width="2.7778" stroke-miterlimit="10" stroke-linecap="round" stroke-linejoin="round"/>
<path d="M711.368 347.168C707.865 347.168 705.026 350.006 705.026 353.509C705.026 357.012 707.865 359.851 711.368 359.851C714.871 359.851 717.71 357.012 717.71 353.509C717.71 350.008 714.87 347.168 711.368 347.168Z" stroke="#F75049" stroke-width="2.7778" stroke-miterlimit="10" stroke-linecap="round" stroke-linejoin="round"/>
<path d="M572.973 331.39H787.753L795.87 341.536H929.911" stroke="#F75049" stroke-width="2.7778" stroke-miterlimit="10" stroke-linecap="round" stroke-linejoin="round"/>
<path d="M764.373 420.886C760.87 420.886 758.031 418.048 758.031 414.545C758.031 411.042 760.87 408.203 764.373 408.203C767.876 408.203 770.715 411.042 770.715 414.545C770.715 418.048 767.876 420.886 764.373 420.886Z" stroke="#F75049" stroke-width="2.7778" stroke-miterlimit="10" stroke-linecap="round" stroke-linejoin="round"/>
<path d="M600.19 398.723H694.806L709.772 414.45H758.221" stroke="#F75049" stroke-width="2.7778" stroke-miterlimit="10" stroke-linecap="round" stroke-linejoin="round"/>
<path d="M797.743 351.404C792.122 351.404 787.565 355.96 787.565 361.582C787.565 367.203 792.122 371.76 797.743 371.76C803.365 371.76 807.921 367.203 807.921 361.582C807.921 355.962 803.365 351.404 797.743 351.404Z" stroke="#F75049" stroke-width="2.7778" stroke-miterlimit="10" stroke-linecap="round" stroke-linejoin="round"/>
<path d="M575.568 377.025H732.838L748.312 361.551H787.629" stroke="#F75049" stroke-width="2.7778" stroke-miterlimit="10" stroke-linecap="round" stroke-linejoin="round"/>
<path d="M577.326 308.082H728.666L736.274 300.472H778.42" stroke="#F75049" stroke-width="2.7778" stroke-miterlimit="10" stroke-linecap="round" stroke-linejoin="round"/>
<path d="M785.424 306.876C788.926 306.876 791.765 304.037 791.765 300.535C791.765 297.032 788.926 294.193 785.424 294.193C781.921 294.193 779.082 297.032 779.082 300.535C779.082 304.037 781.921 306.876 785.424 306.876Z" stroke="#F75049" stroke-width="2.7778" stroke-miterlimit="10" stroke-linecap="round" stroke-linejoin="round"/>
<path d="M677.989 416.612C674.486 416.612 671.647 419.451 671.647 422.954C671.647 426.455 674.486 429.296 677.989 429.296C681.491 429.296 684.331 426.457 684.331 422.954C684.331 419.452 681.491 416.612 677.989 416.612Z" stroke="#F75049" stroke-width="2.7778" stroke-miterlimit="10" stroke-linecap="round" stroke-linejoin="round"/>
<path d="M543 425L671.679 422.828" stroke="#F75049" stroke-width="2.7778" stroke-miterlimit="10" stroke-linecap="round" stroke-linejoin="round"/>
<path d="M545 445.273H685.131L701.681 428.723H809.931L825.817 444.607H898.736" stroke="#F75049" stroke-width="2.7778" stroke-miterlimit="10" stroke-linecap="round" stroke-linejoin="round"/>
<path d="M769.152 498.36C772.609 498.36 775.412 495.557 775.412 492.1C775.412 488.643 772.609 485.84 769.152 485.84C765.695 485.84 762.893 488.643 762.893 492.1C762.893 495.557 765.695 498.36 769.152 498.36Z" stroke="#F75049" stroke-width="2.7778" stroke-miterlimit="10" stroke-linecap="round" stroke-linejoin="round"/>
<path d="M693.437 437.012L701.824 445.4H728.367V481.458L739.385 492.476L761.93 492.714" stroke="#F75049" stroke-width="2.7778" stroke-miterlimit="10" stroke-linecap="round" stroke-linejoin="round"/>
<path d="M908.033 435.398C903.124 435.398 899.144 439.378 899.144 444.287C899.144 449.197 903.124 453.177 908.033 453.177C912.943 453.177 916.923 449.197 916.923 444.287C916.923 439.376 912.944 435.398 908.033 435.398Z" stroke="#F75049" stroke-width="2.7778" stroke-miterlimit="10" stroke-linecap="round" stroke-linejoin="round"/>
<path d="M939.757 332.658C934.848 332.658 930.867 336.639 930.867 341.548C930.867 346.457 934.848 350.438 939.757 350.438C944.666 350.438 948.647 346.457 948.647 341.548C948.647 336.639 944.666 332.658 939.757 332.658Z" stroke="#F75049" stroke-width="2.7778" stroke-miterlimit="10" stroke-linecap="round" stroke-linejoin="round"/>
<path d="M737.882 287.149C734.425 287.149 731.622 284.347 731.622 280.89C731.622 277.432 734.425 274.63 737.882 274.63C741.339 274.63 744.141 277.432 744.141 280.89C744.141 284.347 741.339 287.149 737.882 287.149Z" stroke="#F75049" stroke-width="2.7778" stroke-miterlimit="10" stroke-linecap="round" stroke-linejoin="round"/>
<path d="M697.097 308.123V291.532L708.115 280.514L730.659 280.276" stroke="#F75049" stroke-width="2.7778" stroke-miterlimit="10" stroke-linecap="round" stroke-linejoin="round"/>
<path d="M520.728 421.211L520.82 589.026" stroke="#F75049" stroke-width="2.7778" stroke-miterlimit="10" stroke-linecap="round" stroke-linejoin="round"/>
<path d="M527.161 597.266C527.161 593.763 524.322 590.925 520.819 590.925C517.316 590.925 514.478 593.763 514.478 597.266C514.478 600.769 517.316 603.608 520.819 603.608C524.322 603.608 527.161 600.768 527.161 597.266Z" stroke="#F75049" stroke-width="2.7778" stroke-miterlimit="10" stroke-linecap="round" stroke-linejoin="round"/>
<path d="M543.119 416.235V588.199L533.167 600.783V641.39" stroke="#F75049" stroke-width="2.7778" stroke-miterlimit="10" stroke-linecap="round" stroke-linejoin="round"/>
<path d="M453.44 650.272C453.44 646.769 456.279 643.93 459.782 643.93C463.283 643.93 466.124 646.769 466.124 650.272C466.124 653.775 463.285 656.613 459.782 656.613C456.281 656.612 453.44 653.773 453.44 650.272Z" stroke="#F75049" stroke-width="2.7778" stroke-miterlimit="10" stroke-linecap="round" stroke-linejoin="round"/>
<path d="M423.131 707.658C423.131 704.155 425.969 701.317 429.472 701.317C432.976 701.317 435.814 704.155 435.814 707.658C435.814 711.16 432.976 714 429.472 714C425.969 714 423.131 711.16 423.131 707.658Z" stroke="#F75049" stroke-width="2.7778" stroke-miterlimit="10" stroke-linecap="round" stroke-linejoin="round"/>
<path d="M475.605 380.161V580.704L459.878 595.671V644.119" stroke="#F75049" stroke-width="2.7778" stroke-miterlimit="10" stroke-linecap="round" stroke-linejoin="round"/>
<path d="M512.746 693.82C518.367 693.82 522.924 689.263 522.924 683.642C522.924 678.021 518.367 673.464 512.746 673.464C507.125 673.464 502.568 678.021 502.568 683.642C502.568 689.263 507.125 693.82 512.746 693.82Z" stroke="#F75049" stroke-width="2.7778" stroke-miterlimit="10" stroke-linecap="round" stroke-linejoin="round"/>
<path d="M497.305 399.442V618.736L512.777 634.21V673.527" stroke="#F75049" stroke-width="2.7778" stroke-miterlimit="10" stroke-linecap="round" stroke-linejoin="round"/>
<path d="M566.247 470.347V614.563L573.857 622.173V664.317" stroke="#F75049" stroke-width="2.7778" stroke-miterlimit="10" stroke-linecap="round" stroke-linejoin="round"/>
<path d="M580.133 671.32C580.133 667.817 577.294 664.978 573.791 664.978C570.288 664.978 567.449 667.817 567.449 671.32C567.449 674.823 570.288 677.662 573.791 677.662C577.294 677.662 580.133 674.821 580.133 671.32Z" stroke="#F75049" stroke-width="2.7778" stroke-miterlimit="10" stroke-linecap="round" stroke-linejoin="round"/>
<path d="M539.628 648.661C539.628 645.157 536.789 642.319 533.286 642.319C529.783 642.319 526.944 645.157 526.944 648.661C526.944 652.162 529.783 655.002 533.286 655.002C536.789 655.002 539.628 652.162 539.628 648.661Z" stroke="#F75049" stroke-width="2.7778" stroke-miterlimit="10" stroke-linecap="round" stroke-linejoin="round"/>
<path d="M457.714 563.888C457.714 560.384 454.875 557.546 451.372 557.546C447.87 557.546 445.03 560.384 445.03 563.888C445.03 567.391 447.869 570.229 451.372 570.229C454.875 570.229 457.714 567.391 457.714 563.888Z" stroke="#F75049" stroke-width="2.7778" stroke-miterlimit="10" stroke-linecap="round" stroke-linejoin="round"/>
<path d="M451.065 376.429L451.502 557.579" stroke="#F75049" stroke-width="2.7778" stroke-miterlimit="10" stroke-linecap="round" stroke-linejoin="round"/>
<path d="M429.72 377.673L429.056 571.028L445.606 587.579V665.011L429.72 680.897V700.821" stroke="#F75049" stroke-width="2.7778" stroke-miterlimit="10" stroke-linecap="round" stroke-linejoin="round"/>
<path d="M388.489 655.05C388.489 651.593 385.686 648.79 382.229 648.79C378.772 648.79 375.97 651.593 375.97 655.05C375.97 658.507 378.772 661.31 382.229 661.31C385.685 661.311 388.489 658.507 388.489 655.05Z" stroke="#F75049" stroke-width="2.7778" stroke-miterlimit="10" stroke-linecap="round" stroke-linejoin="round"/>
<path d="M437.316 579.334L428.93 587.722V614.265H392.87L381.852 625.283L381.616 647.827" stroke="#F75049" stroke-width="2.7778" stroke-miterlimit="10" stroke-linecap="round" stroke-linejoin="round"/>
<path d="M338.317 540.567C343.226 540.567 347.206 536.587 347.206 531.677C347.206 526.768 343.226 522.788 338.317 522.788C333.407 522.788 329.427 526.768 329.427 531.677C329.427 536.587 333.407 540.567 338.317 540.567Z" stroke="#F75049" stroke-width="2.7778" stroke-miterlimit="10" stroke-linecap="round" stroke-linejoin="round"/>
<path d="M407.115 401.308V557.795L366.55 598.362H337.81L338.317 540.794" stroke="#F75049" stroke-width="2.7778" stroke-miterlimit="10" stroke-linecap="round" stroke-linejoin="round"/>
<path d="M593.438 630.038C596.895 630.038 599.698 627.235 599.698 623.778C599.698 620.321 596.895 617.518 593.438 617.518C589.981 617.518 587.179 620.321 587.179 623.778C587.179 627.235 589.981 630.038 593.438 630.038Z" stroke="#F75049" stroke-width="2.7778" stroke-miterlimit="10" stroke-linecap="round" stroke-linejoin="round"/>
<path d="M634.569 575.665C638.026 575.665 640.829 572.863 640.829 569.406C640.829 565.948 638.026 563.146 634.569 563.146C631.112 563.146 628.31 565.948 628.31 569.406C628.31 572.863 631.112 575.665 634.569 575.665Z" stroke="#F75049" stroke-width="2.7778" stroke-miterlimit="10" stroke-linecap="round" stroke-linejoin="round"/>
<path d="M566.203 582.993H582.796L593.814 594.011L594.052 616.555" stroke="#F75049" stroke-width="2.7778" stroke-miterlimit="10" stroke-linecap="round" stroke-linejoin="round"/>
<path d="M715.284 622.538C715.284 617.628 719.265 613.648 724.174 613.648C729.083 613.648 733.064 617.628 733.064 622.538C733.064 627.447 729.083 631.427 724.174 631.427C719.265 631.427 715.284 627.447 715.284 622.538Z" stroke="#F75049" stroke-width="2.7778" stroke-miterlimit="10" stroke-linecap="round" stroke-linejoin="round"/>
<path d="M590.582 469.103V558.808L631.149 599.375H704.267L720.295 615.4" stroke="#F75049" stroke-width="2.7778" stroke-miterlimit="10" stroke-linecap="round" stroke-linejoin="round"/>
<path d="M591.271 530.665H634.57V561.049" stroke="#F75049" stroke-width="2.7778" stroke-miterlimit="10" stroke-linecap="round" stroke-linejoin="round"/>
<path d="M591.02 207.064H637.103" stroke="#F75049" stroke-width="2.7778" stroke-miterlimit="10" stroke-linecap="round" stroke-linejoin="round"/>
<path d="M156.012 342.002L143.434 372.767H14.9043" stroke="#F75049" stroke-width="2.7778" stroke-miterlimit="10" stroke-linecap="round" stroke-linejoin="round"/>
<path d="M260.478 537.94L237.507 574.038H139.06" stroke="#F75049" stroke-width="2.7778" stroke-miterlimit="10" stroke-linecap="round" stroke-linejoin="round"/>
<path d="M215.629 184.897L198.401 155.363H98.3125" stroke="#F75049" stroke-width="2.7778" stroke-miterlimit="10" stroke-linecap="round" stroke-linejoin="round"/>
</svg>
