<svg width="27" height="30" viewBox="0 0 27 30" fill="none" xmlns="http://www.w3.org/2000/svg">
<path d="M9.65813 29.65C9.52241 29.8116 9.33554 29.9221 9.12848 29.963L20.0772 29.9741C19.9401 29.9593 19.7833 29.9198 19.6068 29.8556C19.5224 29.826 19.4448 29.7798 19.3786 29.7197C19.3124 29.6596 19.259 29.5867 19.2216 29.5055C19.1413 29.3364 19.1012 29.116 19.1012 28.8444V23.0848C19.1 21.528 18.6827 20.3884 17.8493 19.6662C18.6819 19.5833 19.5071 19.4378 20.3179 19.2309C21.0501 19.0383 21.805 18.7254 22.5829 18.292C23.3265 17.8834 23.9877 17.3402 24.533 16.6901C25.0552 16.0555 25.4805 15.2122 25.8089 14.1603C26.1386 13.1097 26.3034 11.9016 26.3034 10.5361C26.3034 8.59153 25.6688 6.93713 24.3996 5.57286C24.9947 4.11229 24.9311 2.47456 24.2089 0.659652C23.7582 0.5152 23.1076 0.603476 22.2569 0.92448C21.4861 1.20661 20.7439 1.5613 20.0401 1.98379L19.1253 2.5616C17.6314 2.14429 16.0893 1.93564 14.4991 1.93564C12.9363 1.93122 11.3802 2.14184 9.87481 2.5616C9.61801 2.38628 9.27663 2.16899 8.85069 1.90971C8.42474 1.65415 7.75434 1.34549 6.83948 0.983742C5.92461 0.621996 5.23384 0.513966 4.76715 0.659652C4.06218 2.47332 4.006 4.11044 4.59862 5.57101C3.33066 6.93774 2.69668 8.59215 2.69668 10.5342C2.69668 11.8997 2.86088 13.1047 3.18929 14.1492C3.51894 15.1925 3.94057 16.0351 4.45417 16.6771C4.98847 17.3372 5.64728 17.8859 6.39316 18.292C7.10592 18.6984 7.86683 19.0139 8.65808 19.2309C9.46892 19.4372 10.2941 19.582 11.1267 19.6643C10.4847 20.2433 10.0915 21.0705 9.94704 22.1459C9.6016 22.3095 9.23791 22.4313 8.86365 22.5089C8.47721 22.5891 8.01916 22.6293 7.48951 22.6293C6.95985 22.6293 6.4339 22.4564 5.91165 22.1107C5.39064 21.7638 4.94494 21.2619 4.57455 20.6051C4.2831 20.1055 3.88388 19.6772 3.40597 19.3513C2.93311 19.0303 2.53617 18.8383 2.21517 18.7754L1.73366 18.7013C1.39538 18.7001 1.16203 18.7365 1.03363 18.8106C0.905227 18.8822 0.865102 18.9748 0.913253 19.0884C0.967574 19.2113 1.04067 19.325 1.12993 19.4254C1.22337 19.5335 1.32902 19.6305 1.44476 19.7143L1.61144 19.8347C1.96454 19.9952 2.31394 20.3001 2.65964 20.7495C2.96036 21.1274 3.21523 21.5395 3.41893 21.9774L3.65969 22.533C3.85398 23.123 4.22351 23.6398 4.719 24.0145C5.19106 24.3822 5.74516 24.63 6.33389 24.7368C6.88646 24.8382 7.44636 24.8946 8.00805 24.9053C8.54635 24.9127 8.99144 24.8843 9.3433 24.8201L9.89889 24.7238C9.89889 25.3337 9.90259 26.1609 9.91 27.2054L9.92296 28.8444C9.92296 29.1963 9.83469 29.4648 9.65813 29.65Z" fill="#F75049"/>
</svg>
