<svg width="495" height="256" viewBox="0 0 495 256" fill="none" xmlns="http://www.w3.org/2000/svg">
<rect width="495" height="256" fill="#0A0A0A"/>
<path d="M99.2445 163V115.288H113.837V163H99.2445ZM97.9965 100.696C97.9965 99.544 98.2205 98.456 98.6685 97.432C99.1165 96.344 99.7245 95.416 100.493 94.648C101.261 93.88 102.157 93.272 103.181 92.824C104.205 92.376 105.293 92.152 106.445 92.152C108.877 92.152 110.925 92.984 112.589 94.648C114.253 96.312 115.085 98.328 115.085 100.696C115.085 103.064 114.253 105.08 112.589 106.744C110.925 108.408 108.877 109.24 106.445 109.24C105.293 109.24 104.205 109.016 103.181 108.568C102.157 108.12 101.261 107.512 100.493 106.744C99.7245 105.976 99.1165 105.08 98.6685 104.056C98.2205 102.968 97.9965 101.848 97.9965 100.696ZM189.788 163V117.88L172.028 163H159.74L141.98 118.456V163H127.58V94.936H147.356L166.076 140.92L183.836 94.936H204.668V163H189.788ZM239.914 151C241.322 151 242.666 150.776 243.946 150.328C245.226 149.816 246.346 149.08 247.306 148.12C248.33 147.096 249.13 145.848 249.706 144.376C250.346 142.904 250.666 141.144 250.666 139.096C250.666 137.112 250.346 135.384 249.706 133.912C249.13 132.376 248.33 131.128 247.306 130.168C246.346 129.208 245.226 128.504 243.946 128.056C242.666 127.544 241.322 127.288 239.914 127.288C238.57 127.288 237.226 127.544 235.882 128.056C234.602 128.504 233.45 129.208 232.426 130.168C231.466 131.128 230.666 132.376 230.026 133.912C229.45 135.384 229.162 137.112 229.162 139.096C229.162 141.08 229.45 142.84 230.026 144.376C230.666 145.848 231.466 147.096 232.426 148.12C233.45 149.08 234.602 149.816 235.882 150.328C237.226 150.776 238.57 151 239.914 151ZM239.914 113.848C243.498 113.848 246.826 114.488 249.898 115.768C252.97 116.984 255.626 118.712 257.866 120.952C260.17 123.192 261.962 125.848 263.242 128.92C264.586 131.992 265.258 135.384 265.258 139.096C265.258 142.808 264.586 146.232 263.242 149.368C261.962 152.44 260.17 155.096 257.866 157.336C255.626 159.576 252.97 161.336 249.898 162.616C246.826 163.832 243.498 164.44 239.914 164.44C236.33 164.44 233.002 163.832 229.93 162.616C226.858 161.336 224.17 159.576 221.866 157.336C219.626 155.096 217.834 152.44 216.49 149.368C215.21 146.232 214.57 142.808 214.57 139.096C214.57 135.384 215.21 131.992 216.49 128.92C217.834 125.848 219.626 123.192 221.866 120.952C224.17 118.712 226.858 116.984 229.93 115.768C233.002 114.488 236.33 113.848 239.914 113.848ZM302.045 163H287.357L267.773 115.288H283.613L294.653 144.952L304.829 115.288H320.189L302.045 163ZM327.62 163V115.288H342.212V163H327.62ZM326.372 100.696C326.372 99.544 326.596 98.456 327.044 97.432C327.492 96.344 328.1 95.416 328.868 94.648C329.636 93.88 330.532 93.272 331.556 92.824C332.58 92.376 333.668 92.152 334.82 92.152C337.252 92.152 339.3 92.984 340.964 94.648C342.628 96.312 343.46 98.328 343.46 100.696C343.46 103.064 342.628 105.08 340.964 106.744C339.3 108.408 337.252 109.24 334.82 109.24C333.668 109.24 332.58 109.016 331.556 108.568C330.532 108.12 329.636 107.512 328.868 106.744C328.1 105.976 327.492 105.08 327.044 104.056C326.596 102.968 326.372 101.848 326.372 100.696ZM385.139 133.432C385.075 132.536 384.851 131.608 384.467 130.648C384.147 129.688 383.603 128.824 382.835 128.056C382.067 127.288 381.075 126.648 379.859 126.136C378.707 125.624 377.267 125.368 375.539 125.368C374.003 125.368 372.659 125.624 371.507 126.136C370.355 126.648 369.363 127.288 368.531 128.056C367.763 128.824 367.155 129.688 366.707 130.648C366.323 131.608 366.099 132.536 366.035 133.432H385.139ZM398.387 149.272C397.811 151.32 396.915 153.272 395.699 155.128C394.483 156.984 392.947 158.616 391.091 160.024C389.235 161.368 387.059 162.424 384.563 163.192C382.131 164.024 379.411 164.44 376.403 164.44C373.139 164.44 370.003 163.864 366.995 162.712C363.987 161.56 361.331 159.896 359.027 157.72C356.723 155.544 354.899 152.888 353.555 149.752C352.211 146.616 351.539 143.032 351.539 139C351.539 135.16 352.179 131.704 353.459 128.632C354.803 125.496 356.563 122.84 358.739 120.664C360.979 118.488 363.539 116.824 366.419 115.672C369.299 114.456 372.275 113.848 375.347 113.848C382.771 113.848 388.595 115.992 392.819 120.28C397.107 124.568 399.25 130.584 399.25 138.328C399.25 139.352 399.219 140.344 399.155 141.304C399.091 142.2 399.027 142.712 398.963 142.84H365.747C365.811 144.184 366.131 145.432 366.707 146.584C367.347 147.672 368.147 148.632 369.107 149.464C370.131 150.296 371.283 150.936 372.562 151.384C373.843 151.832 375.187 152.056 376.595 152.056C379.283 152.056 381.363 151.48 382.835 150.328C384.371 149.176 385.491 147.672 386.195 145.816L398.387 149.272Z" fill="white"/>
</svg>
