<svg width="48" height="48" viewBox="0 0 48 48" fill="none" xmlns="http://www.w3.org/2000/svg">
<g clip-path="url(#clip0_357_4)">
<path d="M36.75 0H11.25C5.0368 0 0 5.0368 0 11.25V36.75C0 42.9632 5.0368 48 11.25 48H36.75C42.9632 48 48 42.9632 48 36.75V11.25C48 5.0368 42.9632 0 36.75 0Z" fill="url(#paint0_linear_357_4)"/>
<path fill-rule="evenodd" clip-rule="evenodd" d="M29.5723 6.18956C29.8787 6.56981 30.0347 7.083 30.3471 8.109L37.1713 30.5267C34.608 29.1966 31.8568 28.2651 29.0126 27.7644L24.5694 12.7494C24.5429 12.66 24.4952 12.5783 24.4303 12.5112C24.3653 12.4442 24.2852 12.3939 24.1966 12.3646C24.108 12.3352 24.0137 12.3277 23.9216 12.3428C23.8295 12.3578 23.7424 12.3948 23.6677 12.4507C23.5678 12.5257 23.4949 12.6311 23.4598 12.7511L19.0702 27.7569C16.2133 28.2553 13.4495 29.1883 10.875 30.5233L17.7324 8.10394C18.0461 7.07944 18.2025 6.56737 18.5089 6.18787C18.7793 5.85272 19.131 5.59244 19.5306 5.43187C19.9832 5.25 20.5187 5.25 21.5901 5.25H26.4881C27.5608 5.25 28.0971 5.25 28.5501 5.43225C28.95 5.59323 29.3019 5.85384 29.5723 6.18956Z" fill="#31274A"/>
<path fill-rule="evenodd" clip-rule="evenodd" d="M30.3889 31.5935C29.2639 32.5556 27.0184 33.2115 24.432 33.2115C21.2574 33.2115 18.5966 32.2232 17.8907 30.8942C17.6383 31.656 17.5817 32.5277 17.5817 33.0847C17.5817 33.0847 17.4154 35.8194 19.3174 37.7214C19.3175 37.2471 19.5059 36.7923 19.8413 36.457C20.1767 36.1216 20.6315 35.9331 21.1058 35.933C22.7985 35.933 22.7966 37.41 22.7949 38.6083V38.7152C22.7949 40.5339 23.9064 42.093 25.4873 42.75C25.2439 42.2492 25.1178 41.6995 25.1186 41.1427C25.1186 39.4082 26.1371 38.7622 27.3206 38.0119C28.2623 37.4147 29.3085 36.7511 30.0296 35.4199C30.4179 34.7029 30.6207 33.9001 30.6193 33.0847C30.6193 32.5648 30.5385 32.0638 30.3889 31.5935Z" fill="#FF5D01"/>
<path fill-rule="evenodd" clip-rule="evenodd" d="M30.3889 31.5935C29.2639 32.5556 27.0184 33.2115 24.432 33.2115C21.2574 33.2115 18.5966 32.2232 17.8907 30.8942C17.6383 31.656 17.5817 32.5277 17.5817 33.0847C17.5817 33.0847 17.4154 35.8194 19.3174 37.7214C19.3175 37.2471 19.5059 36.7923 19.8413 36.457C20.1767 36.1216 20.6315 35.9331 21.1058 35.933C22.7985 35.933 22.7966 37.41 22.7949 38.6083V38.7152C22.7949 40.5339 23.9064 42.093 25.4873 42.75C25.2439 42.2492 25.1178 41.6995 25.1186 41.1427C25.1186 39.4082 26.1371 38.7622 27.3206 38.0119C28.2623 37.4147 29.3085 36.7511 30.0296 35.4199C30.4179 34.7029 30.6207 33.9001 30.6193 33.0847C30.6193 32.5648 30.5385 32.0638 30.3889 31.5935Z" fill="url(#paint1_linear_357_4)"/>
</g>
<defs>
<linearGradient id="paint0_linear_357_4" x1="24" y1="0" x2="24" y2="48" gradientUnits="userSpaceOnUse">
<stop offset="0.193" stop-color="#FCB3B2"/>
<stop offset="1" stop-color="#C587EE"/>
</linearGradient>
<linearGradient id="paint1_linear_357_4" x1="35.4542" y1="23.7684" x2="28.7934" y2="37.7122" gradientUnits="userSpaceOnUse">
<stop stop-color="#FF1639"/>
<stop offset="1" stop-color="#FF1639" stop-opacity="0"/>
</linearGradient>
<clipPath id="clip0_357_4">
<rect width="48" height="48" fill="white"/>
</clipPath>
</defs>
</svg>
