<svg width="48" height="48" viewBox="0 0 48 48" fill="none" xmlns="http://www.w3.org/2000/svg">
<g clip-path="url(#clip0_357_38)">
<path d="M45.3596 2.64037C43.5978 0.878525 41.4779 -0.0015995 39.0001 2.18213e-06H8.99985C6.52045 2.18213e-06 4.40062 0.880126 2.64037 2.64037C0.878525 4.40222 -0.0015995 6.52205 2.18213e-06 8.99985V39.0001C2.18213e-06 41.4795 0.880126 43.5994 2.64037 45.3596C4.40222 47.1215 6.52205 48.0016 8.99985 48H16.0008C16.4573 48 16.8008 47.984 17.0315 47.9519C17.3001 47.8989 17.5425 47.7556 17.7186 47.5459C17.9476 47.3057 18.0622 46.9573 18.0622 46.5008L18.0453 44.3746C18.0357 43.0196 18.0309 41.9464 18.0309 41.1552L17.3102 41.2801C16.8537 41.3634 16.2763 41.4003 15.578 41.3907C14.8493 41.3767 14.1229 41.3036 13.4061 41.172C12.6423 41.0335 11.9235 40.712 11.3111 40.235C10.6683 39.749 10.1889 39.0785 9.93684 38.313L9.62451 37.5923C9.36025 37.0243 9.0296 36.4896 8.63947 35.9994C8.191 35.4164 7.73773 35.0208 7.27965 34.8126L7.06342 34.6564C6.91327 34.5476 6.77622 34.4219 6.65499 34.2816C6.5392 34.1513 6.44437 34.0038 6.37389 33.8443C6.31143 33.697 6.36348 33.5769 6.53006 33.484C6.69663 33.3879 6.99935 33.3406 7.43821 33.3422L8.06287 33.4383C8.47931 33.52 8.99425 33.7691 9.60769 34.1855C10.2277 34.6082 10.7456 35.1638 11.1237 35.812C11.6042 36.6641 12.1824 37.3152 12.8583 37.7653C13.5358 38.2137 14.2181 38.438 14.9053 38.438C15.5924 38.438 16.1866 38.3859 16.6879 38.2818C17.1734 38.1812 17.6453 38.0231 18.0934 37.8109C18.2808 36.4158 18.7909 35.3427 19.6238 34.5915C18.5437 34.4848 17.4731 34.2968 16.4212 34.0293C15.3948 33.7477 14.4076 33.3385 13.483 32.8112C12.5153 32.2844 11.6607 31.5726 10.9675 30.7162C10.3012 29.8834 9.75424 28.7902 9.32659 27.4368C8.90055 26.0818 8.68752 24.5185 8.68752 22.7471C8.68752 20.2276 9.50999 18.0814 11.1549 16.3083C10.3861 14.4135 10.459 12.2897 11.3735 9.93684C11.979 9.74784 12.8751 9.88798 14.062 10.3573C15.2488 10.8266 16.1185 11.227 16.6711 11.5585C17.2237 11.8949 17.6666 12.1768 17.9997 12.4042C19.9527 11.8597 21.9713 11.5864 23.9988 11.5922C26.0618 11.5922 28.0623 11.8629 30.0003 12.4042L31.1871 11.6546C32.1001 11.1065 33.063 10.6464 34.063 10.2804C35.1665 9.86396 36.0106 9.74944 36.5952 9.93684C37.5322 12.2913 37.6147 14.4159 36.8427 16.3107C38.4892 18.0806 39.3125 20.2268 39.3125 22.7495C39.3125 24.5209 39.0987 26.0882 38.671 27.4512C38.245 28.8159 37.6932 29.9098 37.0157 30.7331C36.3083 31.5765 35.4505 32.2811 34.4858 32.8112C33.4768 33.3734 32.4973 33.7795 31.5475 34.0293C30.4957 34.2976 29.4251 34.4864 28.345 34.5939C29.4261 35.5309 29.9675 37.0093 29.9691 39.029V46.5008C29.9691 46.8532 30.0211 47.1391 30.1252 47.3585C30.1738 47.4638 30.2431 47.5583 30.329 47.6363C30.4148 47.7143 30.5155 47.7743 30.625 47.8126C30.854 47.8959 31.0574 47.9471 31.2352 47.9664C31.413 47.9888 31.6677 47.9992 31.9992 47.9976H39.0001C41.4796 47.9976 43.5994 47.1175 45.3596 45.3572C47.1199 43.597 48 41.4771 48 38.9977V8.99985C48 6.52045 47.1215 4.40062 45.3596 2.64037Z" fill="black"/>
</g>
<defs>
<clipPath id="clip0_357_38">
<rect width="48" height="48" fill="white"/>
</clipPath>
</defs>
</svg>
