<svg width="48" height="48" viewBox="0 0 48 48" fill="none" xmlns="http://www.w3.org/2000/svg">
<g clip-path="url(#clip0_357_10)">
<path d="M36.75 0H11.25C5.0368 0 0 5.0368 0 11.25V36.75C0 42.9632 5.0368 48 11.25 48H36.75C42.9632 48 48 42.9632 48 36.75V11.25C48 5.0368 42.9632 0 36.75 0Z" fill="#242938"/>
<path d="M22.7721 5.26013C22.6915 5.26745 22.4348 5.29313 22.2038 5.31132C16.8777 5.79151 11.8887 8.66551 8.72874 13.0826C6.96943 15.5387 5.84387 18.3246 5.41881 21.2756C5.26862 22.3058 5.25024 22.6101 5.25024 24.0066C5.25024 25.4033 5.26862 25.7076 5.41899 26.7375C6.43787 33.7793 11.449 39.6958 18.2451 41.8879C19.4622 42.2801 20.7451 42.5477 22.204 42.7089C22.7723 42.7712 25.2282 42.7712 25.7965 42.7089C28.3148 42.4303 30.4482 41.8073 32.5523 40.7331C32.8748 40.5683 32.9372 40.5242 32.8932 40.4876C32.8639 40.4655 31.4892 38.6216 29.8397 36.393L26.8412 32.3424L23.0837 26.7816C21.0164 23.7244 19.3156 21.2243 19.3007 21.2243C19.2861 21.2207 19.2715 23.6914 19.2642 26.7083C19.2531 31.9905 19.2496 32.2031 19.1836 32.3276C19.0883 32.5073 19.015 32.5806 18.8609 32.6614C18.7437 32.7199 18.6409 32.7309 18.0874 32.7309H17.4533L17.2846 32.6246C17.1801 32.5592 17.0952 32.4668 17.0389 32.3571L16.9621 32.1921L16.9696 24.8424L16.9804 17.4891L17.0941 17.346C17.1527 17.2691 17.2774 17.1701 17.3654 17.1225C17.5156 17.0492 17.5742 17.0419 18.2084 17.0419C18.9563 17.0419 19.0808 17.0711 19.2752 17.2838C19.3302 17.3424 21.3646 20.4069 23.7987 24.0983C26.2629 27.8346 28.7287 31.5699 31.1959 35.3042L34.1652 39.8021L34.3156 39.7031C35.6461 38.838 37.0538 37.6063 38.1681 36.3233C40.5398 33.5996 42.0685 30.2786 42.5817 26.7375C42.7319 25.7076 42.7502 25.4033 42.7502 24.0066C42.7502 22.6099 42.7319 22.3058 42.5817 21.2756C41.5626 14.2339 36.5515 8.31751 29.7554 6.12545C28.5567 5.73676 27.2811 5.4692 25.8514 5.30795C25.4995 5.2712 23.0764 5.23107 22.7723 5.26032M30.4482 16.602C30.6241 16.6899 30.7671 16.8585 30.8185 17.0344C30.8477 17.1298 30.8551 19.1679 30.8477 23.7609L30.8367 30.3519L29.6747 28.5703L28.5091 26.7889V21.9979C28.5091 18.9004 28.5237 17.1591 28.5456 17.0747C28.6043 16.8696 28.7326 16.7083 28.9086 16.6129C29.0588 16.536 29.1139 16.5285 29.6894 16.5285C30.232 16.5285 30.3272 16.536 30.4482 16.602Z" fill="white"/>
</g>
<defs>
<clipPath id="clip0_357_10">
<rect width="48" height="48" fill="white"/>
</clipPath>
</defs>
</svg>
