<svg width="48" height="48" viewBox="0 0 48 48" fill="none" xmlns="http://www.w3.org/2000/svg">
<g clip-path="url(#clip0_357_14)">
<path d="M36.75 0H11.25C5.0368 0 0 5.0368 0 11.25V36.75C0 42.9632 5.0368 48 11.25 48H36.75C42.9632 48 48 42.9632 48 36.75V11.25C48 5.0368 42.9632 0 36.75 0Z" fill="#0277BD"/>
<path d="M10.0787 19.2471L10.6153 25.2362H24.018V19.2471H10.0787ZM24.0178 7.125H9L9.5445 13.1141H24.0178V7.125ZM24.0178 41.0327V34.8015L23.9916 34.8084L17.3214 33.0075L16.8951 28.2307H10.8829L11.7219 37.6346L23.9902 41.0404L24.0178 41.0327Z" fill="#EBEBEB"/>
<path d="M31.3721 25.2362L30.6769 33.0036L23.9972 34.8066V41.0374L36.2753 37.6346L36.3653 36.6227L37.7726 20.8554L37.9187 19.2471L39 7.125H23.9972V13.1141H32.4364L31.8915 19.2471H23.9972V25.2362H31.3721Z" fill="white"/>
</g>
<defs>
<clipPath id="clip0_357_14">
<rect width="48" height="48" fill="white"/>
</clipPath>
</defs>
</svg>
