<svg width="48" height="48" viewBox="0 0 48 48" fill="none" xmlns="http://www.w3.org/2000/svg">
<g clip-path="url(#clip0_357_19)">
<path d="M6.55273 38.7285L12.4609 0.923252C12.4962 0.697318 12.6017 0.48821 12.7624 0.325464C12.923 0.162718 13.1308 0.0545592 13.3562 0.0162642C13.5817 -0.0220308 13.8135 0.0114737 14.0189 0.112045C14.2243 0.212617 14.3929 0.375173 14.5009 0.576752L20.6111 11.973L23.0464 7.33575C23.139 7.15985 23.2778 7.01259 23.448 6.90986C23.6182 6.80712 23.8132 6.75283 24.012 6.75283C24.2108 6.75283 24.4058 6.80712 24.576 6.90986C24.7461 7.01259 24.885 7.15985 24.9776 7.33575L41.4664 38.7285H6.55273Z" fill="#FFA000"/>
<path d="M26.9636 24.0019L20.6081 11.9674L6.55273 38.7285L26.9636 24.0019Z" fill="#F57C00"/>
<path d="M41.4664 38.7285L36.9412 10.7265C36.9078 10.5291 36.8207 10.3447 36.6895 10.1935C36.5582 10.0423 36.388 9.93013 36.1972 9.86924C36.0066 9.8085 35.8029 9.80135 35.6085 9.84857C35.414 9.89579 35.2363 9.99557 35.0947 10.137L6.55273 38.7281L22.3459 47.5849C22.8336 47.8571 23.3829 48 23.9415 48C24.5001 48 25.0494 47.8571 25.5371 47.5849L41.4664 38.7285Z" fill="#FFCA28"/>
<path d="M36.9412 10.7265C36.9078 10.5291 36.8207 10.3447 36.6894 10.1935C36.5582 10.0423 36.3879 9.93014 36.1972 9.86925C36.0066 9.80846 35.8029 9.80125 35.6085 9.84841C35.414 9.89556 35.2363 9.99527 35.0947 10.1366L29.4296 15.8167L24.9749 7.33575C24.8823 7.15985 24.7435 7.01258 24.5733 6.90985C24.4031 6.80712 24.2081 6.75282 24.0093 6.75282C23.8105 6.75282 23.6155 6.80712 23.4454 6.90985C23.2752 7.01258 23.1363 7.15985 23.0437 7.33575L20.6084 11.9726L14.4982 0.576746C14.3901 0.374889 14.2212 0.212164 14.0154 0.111615C13.8097 0.0110663 13.5775 -0.0222107 13.3518 0.0164964C13.1263 0.0551928 12.9186 0.163818 12.7582 0.327008C12.5977 0.490199 12.4927 0.699696 12.4578 0.925871L6.55269 38.7285H6.53357L6.55232 38.7502L6.70794 38.8267L35.0864 10.4152C35.228 10.2731 35.4059 10.1727 35.6008 10.1251C35.7956 10.0775 35.9999 10.0845 36.191 10.1454C36.3821 10.2063 36.5528 10.3187 36.6842 10.4702C36.8156 10.6217 36.9027 10.8066 36.9359 11.0044L41.4228 38.7555L41.4663 38.7281L36.9412 10.7265ZM6.60444 38.6767L12.4604 1.19325C12.4952 0.96695 12.6003 0.757331 12.7608 0.594061C12.9214 0.430792 13.1291 0.322143 13.3548 0.283496C13.5806 0.244822 13.8128 0.278155 14.0185 0.378773C14.2242 0.479391 14.3931 0.642194 14.5012 0.844121L20.6107 12.2404L23.0463 7.60312C23.1389 7.42722 23.2778 7.27996 23.448 7.17723C23.6182 7.07449 23.8132 7.0202 24.0119 7.0202C24.2107 7.0202 24.4057 7.07449 24.5759 7.17723C24.7461 7.27996 24.885 7.42722 24.9776 7.60312L29.3418 15.9037L6.60369 38.6767H6.60444Z" fill="white" fill-opacity="0.2"/>
<path opacity="0.2" d="M25.5371 47.3175C25.0494 47.5897 24.5001 47.7327 23.9415 47.7327C23.3829 47.7327 22.8336 47.5897 22.3459 47.3175L6.59025 38.4862L6.552 38.7288L22.3451 47.5826C22.8329 47.8549 23.3822 47.9978 23.9408 47.9978C24.4993 47.9978 25.0486 47.8549 25.5364 47.5826L41.4664 38.7288L41.4251 38.4776L25.5364 47.3182L25.5371 47.3175Z" fill="#A52714"/>
</g>
<defs>
<clipPath id="clip0_357_19">
<rect width="48" height="48" fill="white"/>
</clipPath>
</defs>
</svg>
