<svg width="48" height="48" viewBox="0 0 48 48" fill="none" xmlns="http://www.w3.org/2000/svg">
<g clip-path="url(#clip0_357_29)">
<path d="M36.75 0H11.25C5.0368 0 0 5.0368 0 11.25V36.75C0 42.9632 5.0368 48 11.25 48H36.75C42.9632 48 48 42.9632 48 36.75V11.25C48 5.0368 42.9632 0 36.75 0Z" fill="#E14E1D"/>
<path d="M9 7.125L10.6144 25.2362H31.3725L30.6759 33.0043L23.9923 34.8114L17.3212 33.0069L16.8752 28.0191H10.8637L11.7234 37.6343L23.991 41.0415L36.2741 37.6343L37.9209 19.2478H16.092L15.5439 13.1147H38.4636L39 7.125H9Z" fill="white"/>
<path d="M24 7.125H9L10.6144 25.2362H24V19.2478H16.092L15.5439 13.1147H24V7.125ZM24 34.8088L23.9923 34.8114L17.3212 33.0069L16.8752 28.0191H10.8637L11.7234 37.6343L23.991 41.0415L24.0002 41.0389L24 34.8088Z" fill="#EBEBEB"/>
</g>
<defs>
<clipPath id="clip0_357_29">
<rect width="48" height="48" fill="white"/>
</clipPath>
</defs>
</svg>
