<svg width="65" height="65" viewBox="0 0 65 65" fill="none" xmlns="http://www.w3.org/2000/svg">
<g clip-path="url(#clip0_479_39)">
<path d="M49.7656 0H15.2344C6.82066 0 0 6.82066 0 15.2344V49.7656C0 58.1793 6.82066 65 15.2344 65H49.7656C58.1793 65 65 58.1793 65 49.7656V15.2344C65 6.82066 58.1793 0 49.7656 0Z" fill="#242938"/>
<path d="M30.4377 7.90058C31.6866 7.18583 33.3132 7.18253 34.5609 7.90058C40.8379 11.4476 47.117 14.9889 53.3931 18.538C54.5738 19.203 55.3631 20.5167 55.3512 21.8769V43.2164C55.3601 44.6329 54.4925 45.9781 53.2471 46.6279C46.9906 50.1554 40.7371 53.687 34.4816 57.2145C33.2073 57.9432 31.548 57.8871 30.313 57.0985C28.4374 56.0112 26.5585 54.9291 24.6826 53.8429C24.2992 53.6144 23.8671 53.4326 23.5964 53.0609C23.8359 52.7384 24.2637 52.6983 24.6113 52.5574C25.3941 52.3083 26.1134 51.9086 26.8325 51.5209C27.0145 51.3965 27.2364 51.4442 27.4109 51.5554C29.0148 52.4751 30.6047 53.4217 32.214 54.3324C32.5573 54.5307 32.9049 54.2674 33.1984 54.1039C39.3379 50.6338 45.4849 47.1771 51.6236 43.7059C51.8511 43.5965 51.9768 43.355 51.9583 43.1059C51.9626 36.0664 51.9593 29.0258 51.9605 21.986C51.9864 21.7037 51.8229 21.4437 51.5672 21.3279C45.3326 17.8166 39.1007 14.3003 32.8671 10.7883C32.759 10.7141 32.6311 10.6742 32.5001 10.674C32.3691 10.6738 32.241 10.7132 32.1328 10.787C25.8988 14.3003 19.6685 17.8202 13.4346 21.331C13.1799 21.447 13.009 21.7027 13.0393 21.986C13.0405 29.0258 13.0393 36.0664 13.0393 43.107C13.0284 43.2286 13.0551 43.3506 13.1157 43.4566C13.1764 43.5626 13.2681 43.6474 13.3785 43.6996C15.0418 44.6428 16.7074 45.5795 18.3721 46.5197C19.31 47.0242 20.4612 47.3243 21.4946 46.9376C22.4061 46.6106 23.0452 45.6801 23.0279 44.7122C23.0366 37.7137 23.0236 30.7143 23.0343 23.7167C23.0114 23.4061 23.3062 23.1494 23.6084 23.1789C24.4077 23.1733 25.208 23.168 26.0073 23.1809C26.3409 23.1733 26.5704 23.5079 26.5293 23.8208C26.526 30.8636 26.5379 37.9065 26.524 44.9491C26.526 46.8262 25.7549 48.8686 24.0187 49.787C21.88 50.8948 19.2363 50.6599 17.1233 49.5976C15.2942 48.6845 13.5483 47.6069 11.7517 46.6289C10.503 45.9827 9.63971 44.6322 9.64859 43.2167V21.8769C9.63539 20.4885 10.4565 19.1509 11.6735 18.4956C17.929 14.9655 24.1835 11.4324 30.4377 7.90058Z" fill="#81CD39"/>
<path d="M35.895 22.6828C38.6233 22.5071 41.5439 22.5787 43.999 23.9228C45.9 24.9527 46.9537 27.1144 46.9872 29.2262C46.9341 29.5108 46.6363 29.668 46.3644 29.6484C45.5729 29.6474 44.781 29.6593 43.9896 29.6431C43.6536 29.656 43.4586 29.3465 43.4165 29.0497C43.189 28.0392 42.6378 27.0385 41.6869 26.551C40.2269 25.8203 38.5344 25.8571 36.9424 25.8723C35.7803 25.9338 34.5305 26.0346 33.5459 26.7178C32.79 27.2356 32.5605 28.2806 32.8301 29.1223C33.0845 29.7266 33.782 29.9216 34.3531 30.1014C37.6409 30.9614 41.125 30.8756 44.3501 32.0072C45.6854 32.4686 46.9915 33.3656 47.4485 34.7636C48.0465 36.6374 47.7845 38.8769 46.4512 40.381C45.3701 41.6188 43.7956 42.2927 42.2252 42.6586C40.136 43.1245 37.9679 43.1364 35.8463 42.9295C33.8513 42.702 31.7752 42.1779 30.2352 40.8188C28.9182 39.6752 28.2751 37.8933 28.3388 36.1738C28.354 35.8833 28.6432 35.6807 28.9215 35.7046C29.7185 35.6983 30.5158 35.696 31.3128 35.7059C31.6314 35.683 31.8673 35.9583 31.8838 36.2584C32.0306 37.2209 32.3924 38.2315 33.2321 38.802C34.852 39.8473 36.885 39.7757 38.7401 39.8049C40.2769 39.7369 42.0022 39.7163 43.2563 38.7004C43.918 38.121 44.114 37.1516 43.9352 36.3178C43.7415 35.6137 43.0049 35.2857 42.3724 35.0711C39.1268 34.0446 35.6036 34.417 32.3894 33.2559C31.0843 32.7948 29.8224 31.9229 29.3211 30.5823C28.6216 28.6849 28.9421 26.3377 30.415 24.8846C31.8511 23.4386 33.924 22.8818 35.895 22.6828Z" fill="#81CD39"/>
</g>
<defs>
<clipPath id="clip0_479_39">
<rect width="65" height="65" fill="white"/>
</clipPath>
</defs>
</svg>
